<svg width="5" height="4" viewBox="0 0 5 4" fill="none" xmlns="http://www.w3.org/2000/svg">
<path d="M4.312 2.058C4.312 2.30067 4.27 2.52933 4.186 2.744C4.102 2.95867 3.98067 3.14533 3.822 3.304C3.67267 3.46267 3.486 3.59333 3.262 3.696C3.04733 3.78933 2.8 3.836 2.52 3.836C2.24 3.836 1.988 3.78933 1.764 3.696C1.54933 3.59333 1.36267 3.46267 1.204 3.304C1.05467 3.14533 0.938 2.95867 0.854 2.744C0.77 2.52933 0.728 2.30067 0.728 2.058C0.728 1.82467 0.77 1.60067 0.854 1.386C0.938 1.162 1.05467 0.970666 1.204 0.812C1.36267 0.653333 1.54933 0.527333 1.764 0.434C1.988 0.331333 2.24 0.28 2.52 0.28C2.8 0.28 3.04733 0.331333 3.262 0.434C3.486 0.527333 3.67267 0.653333 3.822 0.812C3.98067 0.970666 4.102 1.162 4.186 1.386C4.27 1.60067 4.312 1.82467 4.312 2.058Z" fill="#cccccc"/>
</svg>
